<?xml version="1.0" standalone="no"?>
<!DOCTYPE svg PUBLIC "-//W3C//DTD SVG 20010904//EN"
 "http://www.w3.org/TR/2001/REC-SVG-20010904/DTD/svg10.dtd">
<svg version="1.0" xmlns="http://www.w3.org/2000/svg"
 width="50.000000pt" height="50.000000pt" viewBox="0 0 50.000000 50.000000"
 preserveAspectRatio="xMidYMid meet">

<g transform="translate(0.000000,50.000000) scale(0.100000,-0.100000)"
fill="#000000" stroke="none">
<path d="M30 250 l0 -230 180 0 c173 0 180 1 180 20 0 11 -5 20 -12 20 -7 0
-26 14 -44 31 -30 29 -33 30 -60 16 -28 -15 -55 -20 -83 -18 -9 1 -12 9 -9 26
5 23 2 25 -33 25 -22 0 -39 5 -39 10 0 6 17 10 38 10 31 0 38 4 38 20 0 16 -7
20 -38 20 -21 0 -38 5 -38 10 0 6 20 10 43 10 31 0 49 6 62 20 18 20 17 20
-43 20 -35 0 -62 4 -62 10 0 6 31 10 74 10 41 0 78 5 81 10 3 6 24 10 46 10
42 0 79 14 79 30 0 6 -31 10 -70 10 l-70 0 0 70 0 70 -110 0 -110 0 0 -230z"/>
<path d="M270 415 l0 -55 57 0 57 0 -54 55 c-30 30 -56 55 -57 55 -2 0 -3 -25
-3 -55z"/>
<path d="M416 311 c-9 -15 23 -36 36 -23 5 5 7 15 4 21 -9 13 -33 14 -40 2z"/>
<path d="M340 263 c-19 -14 -49 -40 -67 -56 -30 -28 -31 -31 -16 -53 17 -27
34 -24 26 4 -7 27 24 49 47 34 15 -9 24 -5 56 23 33 28 37 36 28 52 -17 27
-35 26 -74 -4z"/>
<path d="M237 233 c-20 -25 -35 -48 -33 -51 4 -4 116 87 116 95 0 2 -10 3 -22
3 -15 0 -36 -16 -61 -47z"/>
<path d="M398 199 c-33 -24 -36 -39 -8 -32 24 6 27 -12 4 -21 -9 -3 -31 3 -49
14 -38 23 -45 25 -45 7 0 -26 77 -88 120 -98 52 -12 60 -4 60 62 0 35 -5 51
-23 67 -28 26 -25 26 -59 1z"/>
<path d="M212 135 c-10 -22 -9 -25 8 -25 26 0 35 19 18 36 -13 13 -16 11 -26
-11z"/>
</g>
</svg>
