<?xml version="1.0" encoding="iso-8859-1"?>
<!-- Uploaded to: SVG Repo, www.svgrepo.com, Generator: SVG Repo Mixer Tools -->
<svg height="800px" width="800px" version="1.1" id="Layer_1" xmlns="http://www.w3.org/2000/svg" xmlns:xlink="http://www.w3.org/1999/xlink" 
	 viewBox="0 0 487.831 487.831" xml:space="preserve">
<g>
	<path style="fill:#00E7F0;" d="M65.497,129.429c0-54.826,44.604-99.429,99.43-99.429s99.43,44.604,99.43,99.429
		c0,11.408-1.92,22.602-5.707,33.27l28.271,10.036c4.934-13.898,7.436-28.469,7.436-43.306C294.356,58.062,236.294,0,164.927,0
		S35.497,58.062,35.497,129.429c0,26.908,8.183,52.709,23.664,74.615c15.128,21.405,36.056,37.545,60.522,46.675l10.488-28.106
		C91.488,208.177,65.497,170.729,65.497,129.429z"/>
	<path style="fill:#00E7F0;" d="M115.497,129.43c0-27.255,22.174-49.43,49.429-49.43c27.256,0,49.43,22.174,49.43,49.43
		c0,0.252-0.011,0.502-0.02,0.752l-0.02,0.643l29.988,0.826l0.015-0.45c0.02-0.589,0.037-1.178,0.037-1.771
		c0-43.798-35.632-79.43-79.43-79.43c-43.797,0-79.429,35.632-79.429,79.43c0,24.33,10.97,47,30.098,62.197l18.662-23.489
		C122.335,158.666,115.497,144.557,115.497,129.43z"/>
	<polygon style="fill:#FFDA44;" points="144.927,487.831 264.889,343.8 144.927,86.54 	"/>
	<polygon style="fill:#FFCD00;" points="144.927,86.54 264.889,343.8 452.334,344.485 	"/>
</g>
</svg>