<?xml version="1.0" standalone="no"?>
<!DOCTYPE svg PUBLIC "-//W3C//DTD SVG 20010904//EN"
 "http://www.w3.org/TR/2001/REC-SVG-20010904/DTD/svg10.dtd">
<svg version="1.0" xmlns="http://www.w3.org/2000/svg"
 width="512.000000pt" height="512.000000pt" viewBox="0 0 512.000000 512.000000"
 preserveAspectRatio="xMidYMid meet">

<g transform="translate(0.000000,512.000000) scale(0.100000,-0.100000)"
fill="#000000" stroke="none">
<path d="M685 5101 c-48 -22 -79 -54 -100 -103 -13 -33 -15 -294 -15 -2438 0
-2144 2 -2405 15 -2438 21 -49 52 -81 100 -103 38 -18 112 -19 1875 -19 1763
0 1837 1 1875 19 48 22 79 54 100 103 13 33 15 294 15 2440 0 2315 -1 2404
-19 2443 -22 48 -54 79 -103 100 -33 13 -238 15 -1870 15 -1761 0 -1835 -1
-1873 -19z"/>
</g>
</svg>
